Den gode, den onde, den fule	
	
Originaltitel:	Il buono, il brutto, il cattivo 	
Regissör:	Sergio Leone
Utgivningsår:	1966
Längd:	180 min
	
Om Den gode, den onde, den fule:

Med ponchon, sitt skägg och med en lång smal cigarr hängande i mungipan som 

kännetecken får vi se Clint Eastwood som "den gode". En av filmhistoriens mest 

välkända "bad guys", Lee van Cleef, har rollen som "den onde" och sadistiske 

Setenza, även kallad Angel Eyes. Eli Wallach spelar "den fule" och kallblodige 

banditen Tuco. Denna trios vägar korsas under det livsfarliga sökandet efter 200 

000 dollar i guldmynt som försvunnit spårlöst från en militär penningtransport.

Skådespelare:
	Clint Eastwood, Lee Van Cleef, Eli Wallach, Luigi Pistilli, Aldo Giuffrè, Rada Rassimov, Enzo Petito, Mario Brega, Chelo Alonso

Manus:
	Agenore Incrocci, Furio Scarpelli, Luciano Vincenzoni, Sergio Leone
Genre:
	Action, Äventyr, Western

Alternativ titel:
	The Good, the Bad, and the Ugly,

Produktionsland:
	Italien, Spanien

4 Westernfilmer med Clint Eastwood Swesub -Lindoff\Den.Gode.Den.Onde.Den.Fule.Swesub.DVDRIP.XviD. -Lindoff.avi
Format                           : AVI
Format/Info                      : Audio Video Interleave
File size                        : 699 MiB
Duration                         : 2h 51mn
Overall bit rate                 : 571 Kbps
Writing application              : FairUse Wizard - http://fairusewizard.com
Writing library                  : The best and REALLY easy backup tool

Video
ID                               : 0
Format                           : MPEG-4 Visual
Format profile                   : Advanced Simple@L5
Format settings, BVOP            : Yes
Format settings, QPel            : No
Format settings, GMC             : No warppoints
Format settings, Matrix          : Default (MPEG)
Muxing mode                      : Packed bitstream
Codec ID                         : XVID
Codec ID/Hint                    : XviD
Duration                         : 2h 51mn
Bit rate                         : 433 Kbps
Width                            : 432 pixels
Height                           : 240 pixels
Display aspect ratio             : 16:9
Frame rate                       : 25.000 fps
Color space                      : YUV
Chroma subsampling               : 4:2:0
Bit depth                        : 8 bits
Scan type                        : Progressive
Bits/(Pixel*Frame)               : 0.167
Stream size                      : 531 MiB (76%)
Writing library                  : XviD 1.2.0.dev47 (UTC 2006-11-01)

Audio
ID                               : 1
Format                           : MPEG Audio
Format version                   : Version 1
Format profile                   : Layer 3
Mode                             : Joint stereo
Mode extension                   : MS Stereo
Codec ID                         : 55
Codec ID/Hint                    : MP3
Duration                         : 2h 51mn
Bit rate mode                    : Constant
Bit rate                         : 128 Kbps
Channel(s)                       : 2 channels
Sampling rate                    : 48.0 KHz
Stream size                      : 157 MiB (22%)
Alignment                        : Aligned on interleaves
Interleave, duration             : 40 ms (1.00 video frame)
Interleave, preload duration     : 504 ms
Writing library                  : LAME3.97b
Encoding settings                : -m j -V 4 -q 2 -lowpass 17 -b 128







För några få dollar mer
		
	
Originaltitel:	Per qualche dollaro in più 	

Regissör:	Sergio Leone

Utgivningsår:	1965

Längd:	130 min
 	
Om För några få dollar mer:

Leones antihjältar, här representerade av Clint Eastwood och Lee van Cleef, vände 

under några år upp och ned på westerngenren. Utan moral rör de sig i ett gränsland 

till civilisationen, fjärran de forna amerikanska filmernas ideal. Med säker 

känsla för det stilistiska ger Leone oss sin cyniska och personliga bild av 

västernmyten.

Skådespelare:
	Clint Eastwood, Lee Van Cleef, Gian Maria Volontè, Klaus Kinski, Aldo 

Sambrell, Luigi Pistilli, Joseph Egger, Roberto Camardiel, Mario Brega, Mara 

Krupp, Rosemarie Dexter, Panos Papadopulos, Benito Stafanelli

Manus:
	Sergio Leone, Luciano Vincenzoni, Fulvio Morsella, Sergio Donati, Fernando Di Leo

Genre:
	Action, Western
Alternativ titel:
	For a Few Dollars More,

Produktionsland:
	Italien, Spanien, Västtyskland, Monaco

For.A.Few.Dollars.More.Swesub.DVDRIP.XviD. -Lindoff.avi
Format                           : AVI
Format/Info                      : Audio Video Interleave
File size                        : 700 MiB
Duration                         : 2h 6mn
Overall bit rate                 : 775 Kbps
Writing application              : FairUse Wizard - http://fairusewizard.com
Writing library                  : The best and REALLY easy backup tool

Video
ID                               : 0
Format                           : MPEG-4 Visual
Format profile                   : Advanced Simple@L5
Format settings, BVOP            : Yes
Format settings, QPel            : No
Format settings, GMC             : No warppoints
Format settings, Matrix          : Default (MPEG)
Muxing mode                      : Packed bitstream
Codec ID                         : XVID
Codec ID/Hint                    : XviD
Duration                         : 2h 6mn
Bit rate                         : 637 Kbps
Width                            : 512 pixels
Height                           : 288 pixels
Display aspect ratio             : 16:9
Frame rate                       : 25.000 fps
Color space                      : YUV
Chroma subsampling               : 4:2:0
Bit depth                        : 8 bits
Scan type                        : Progressive
Bits/(Pixel*Frame)               : 0.173
Stream size                      : 575 MiB (82%)
Writing library                  : XviD 1.2.0.dev47 (UTC 2006-11-01)

Audio
ID                               : 1
Format                           : MPEG Audio
Format version                   : Version 1
Format profile                   : Layer 3
Mode                             : Joint stereo
Mode extension                   : MS Stereo
Codec ID                         : 55
Codec ID/Hint                    : MP3
Duration                         : 2h 6mn
Bit rate mode                    : Constant
Bit rate                         : 128 Kbps
Channel(s)                       : 2 channels
Sampling rate                    : 48.0 KHz
Stream size                      : 116 MiB (17%)
Alignment                        : Aligned on interleaves
Interleave, duration             : 40 ms (1.00 video frame)
Interleave, preload duration     : 504 ms
Writing library                  : LAME3.97b
Encoding settings                : -m j -V 4 -q 2 -lowpass 17 -b 128


För en handfull dollar
	
		
Originaltitel:	Per un pugno di dollari 	

Regissör:	Sergio Leone

Utgivningsår:	1964

Längd:	99 min
 	
Om För en handfull dollar:

Att åka till Europa för att spela in en western var ett djärvt steg för en ung 

amerikansk skådis. Men Eastwood satsade rätt - Leone förnyade både filmspråket och 

genren och Mannen utan namn blev en urtyp för en ny sorts antihjälte. Historien om 

en man som kommer till en stad där två gäng slåss om makten har filmats av både 

Kurosawa och Walter Hill och bygger ursprungligen på Hammetts Red Harvest.

Skådespelare:
	Clint Eastwood, Gian Maria Volontè, Marianne Koch, Joseph Egger, Wolfgang Lukschy, Sieghardt Rupp, Mario Brega, Carol Brown

Manus:
	Sergio Leone, Víctor Andrés Catena, A Bonzzoni, Jaime Comas Gil
Genre:
	Action, Western
Alternativ titel:
	A Fistful of Dollars,
Produktionsland:
	Italien, Spanien, Västtyskland


För.En.Handfull.Dollar.Swesub.DVDRIP.Xvid. -Lindoff.avi
Format                           : AVI
Format/Info                      : Audio Video Interleave
File size                        : 700 MiB
Duration                         : 1h 35mn
Overall bit rate                 : 1 023 Kbps
Writing application              : FairUse Wizard - http://fairusewizard.com
Writing library                  : The best and REALLY easy backup tool

Video
ID                               : 0
Format                           : MPEG-4 Visual
Format profile                   : Advanced Simple@L5
Format settings, BVOP            : Yes
Format settings, QPel            : No
Format settings, GMC             : No warppoints
Format settings, Matrix          : Default (MPEG)
Muxing mode                      : Packed bitstream
Codec ID                         : XVID
Codec ID/Hint                    : XviD
Duration                         : 1h 35mn
Bit rate                         : 886 Kbps
Width                            : 544 pixels
Height                           : 304 pixels
Display aspect ratio             : 16:9
Frame rate                       : 25.000 fps
Color space                      : YUV
Chroma subsampling               : 4:2:0
Bit depth                        : 8 bits
Scan type                        : Progressive
Bits/(Pixel*Frame)               : 0.214
Stream size                      : 606 MiB (87%)
Writing library                  : XviD 1.2.0.dev47 (UTC 2006-11-01)

Audio
ID                               : 1
Format                           : MPEG Audio
Format version                   : Version 1
Format profile                   : Layer 3
Mode                             : Joint stereo
Mode extension                   : MS Stereo
Codec ID                         : 55
Codec ID/Hint                    : MP3
Duration                         : 1h 35mn
Bit rate mode                    : Constant
Bit rate                         : 128 Kbps
Channel(s)                       : 2 channels
Sampling rate                    : 48.0 KHz
Stream size                      : 87.5 MiB (13%)
Alignment                        : Aligned on interleaves
Interleave, duration             : 40 ms (1.00 video frame)
Interleave, preload duration     : 504 ms
Writing library                  : LAME3.97b
Encoding settings                : -m j -V 4 -q 2 -lowpass 17 -b 128


 	
Mannen med oxpiskan
	
		
Originaltitel:	High Plains Drifter 	

Regissör:	Clint Eastwood

Utgivningsår:	1973

Längd:	105 min
 	
Om Mannen med oxpiskan:

En främling rider ut från den heta öknen in till en liten stad i vilda västern. 

Människorna i staden är rädda för honom och tre revolvermän försöker mörda honom. 

Samtidigt kommer ett gäng till staden för att hämnas...

Skådespelare:
	Clint Eastwood, Mariana Hill, Verna Bloom, Mitch Ryan, Jack Ging, Stefan Gierasch, Ted Hartley, Billy Curtis, Geoffrey Lewis, Scott Walker, Walter Barnes
Manus:
	Ernest Tidyman
Genre:
	Thriller, Western
Produktionsland:
	USA

Mannen.Med.Oxpiskan.Swesub.DVDRIP.XviD. -Lindoff.avi
Format                           : AVI
Format/Info                      : Audio Video Interleave
File size                        : 700 MiB
Duration                         : 1h 40mn
Overall bit rate                 : 972 Kbps
Writing application              : FairUse Wizard - http://fairusewizard.com
Writing library                  : The best and REALLY easy backup tool

Video
ID                               : 0
Format                           : MPEG-4 Visual
Format profile                   : Advanced Simple@L5
Format settings, BVOP            : Yes
Format settings, QPel            : No
Format settings, GMC             : No warppoints
Format settings, Matrix          : Default (MPEG)
Muxing mode                      : Packed bitstream
Codec ID                         : XVID
Codec ID/Hint                    : XviD
Duration                         : 1h 40mn
Bit rate                         : 835 Kbps
Width                            : 512 pixels
Height                           : 288 pixels
Display aspect ratio             : 16:9
Frame rate                       : 25.000 fps
Color space                      : YUV
Chroma subsampling               : 4:2:0
Bit depth                        : 8 bits
Scan type                        : Progressive
Bits/(Pixel*Frame)               : 0.226
Stream size                      : 601 MiB (86%)
Writing library                  : XviD 1.2.0.dev47 (UTC 2006-11-01)

Audio
ID                               : 1
Format                           : MPEG Audio
Format version                   : Version 1
Format profile                   : Layer 3
Mode                             : Joint stereo
Mode extension                   : MS Stereo
Codec ID                         : 55
Codec ID/Hint                    : MP3
Duration                         : 1h 40mn
Bit rate mode                    : Constant
Bit rate                         : 128 Kbps
Channel(s)                       : 2 channels
Sampling rate                    : 48.0 KHz
Stream size                      : 92.1 MiB (13%)
Alignment                        : Aligned on interleaves
Interleave, duration             : 40 ms (1.00 video frame)
Interleave, preload duration     : 504 ms
Writing library                  : LAME3.97b
Encoding settings                : -m j -V 4 -q 2 -lowpass 17 -b 128

